<?xml version="1.0" standalone="no"?>
<!DOCTYPE svg PUBLIC "-//W3C//DTD SVG 20010904//EN"
 "http://www.w3.org/TR/2001/REC-SVG-20010904/DTD/svg10.dtd">
<svg version="1.0" xmlns="http://www.w3.org/2000/svg"
 width="2220.000000pt" height="2030.000000pt" viewBox="0 0 2220.000000 2030.000000"
 preserveAspectRatio="xMidYMid meet">
<metadata>
Created by potrace 1.16, written by Peter Selinger 2001-2019
</metadata>
<defs>
<linearGradient id="sunLeafGrad" x1="0" y1="1" x2="0" y2="0">
<stop offset="0%" stop-color="#FDEB44"/>
<stop offset="68%" stop-color="#8FC93A"/>
<stop offset="100%" stop-color="#1A8C3C"/>
</linearGradient>
</defs>
<g transform="translate(0.000000,2030.000000) scale(0.100000,-0.100000)"><g fill="#FDEB44" stroke="none"><path d="M11829 19596 c-2 -2 -76 -19 -164 -36 -240 -47 -280 -71 -340 -201
-46 -101 -50 -153 -26 -344 12 -93 26 -208 32 -255 8 -66 22 -110 65 -207 108
-244 120 -302 129 -598 3 -120 11 -228 21 -270 8 -38 24 -115 35 -170 14 -68
36 -134 70 -207 56 -118 53 -99 78 -523 7 -107 18 -188 40 -280 17 -72 35
-171 41 -221 12 -114 27 -154 83 -236 45 -67 64 -109 92 -212 36 -129 130
-140 164 -20 34 119 40 1306 7 1439 -13 54 -19 143 -25 395 -5 179 -14 442
-20 585 -6 143 -16 438 -21 655 -12 478 -24 562 -93 645 -41 50 -142 86 -168
61z"/><path d="M7214 18255 c-27 -19 -83 -51 -124 -70 -41 -20 -91 -43 -110 -53 -57
-27 -186 -162 -215 -223 -46 -99 -31 -157 64 -261 54 -60 73 -89 90 -141 29
-86 53 -119 131 -185 150 -125 276 -276 348 -419 26 -51 124 -175 212 -268 36
-38 80 -87 98 -108 17 -21 61 -60 98 -87 80 -60 95 -79 128 -160 15 -36 39
-81 55 -100 15 -19 56 -73 91 -120 34 -47 100 -121 145 -166 65 -63 92 -98
124 -163 35 -68 66 -107 184 -232 107 -112 157 -174 203 -250 40 -65 91 -131
146 -187 46 -48 103 -110 127 -139 54 -67 194 -163 238 -163 84 0 127 140 82
273 -42 125 -85 188 -202 294 -60 54 -66 85 -36 190 33 123 14 162 -90 182
-79 15 -98 33 -139 120 -19 42 -53 103 -77 136 -56 79 -71 111 -80 165 -13 82
-34 115 -115 188 -63 58 -85 86 -113 144 -19 40 -57 101 -85 135 -27 34 -62
93 -77 130 -53 131 -84 193 -130 263 -25 39 -64 107 -86 151 -22 44 -57 99
-78 122 -76 84 -109 137 -171 278 -34 79 -77 169 -96 199 -18 30 -52 98 -77
150 -50 107 -89 163 -205 289 -120 131 -172 148 -258 86z"/><path d="M9604 18236 c-41 -26 -105 -55 -159 -71 -280 -85 -326 -236 -160
-520 19 -33 42 -82 51 -110 26 -81 60 -141 114 -206 28 -33 69 -97 91 -140 22
-44 60 -108 85 -142 26 -34 64 -98 85 -142 21 -44 61 -107 89 -140 59 -69 76
-98 120 -213 17 -45 57 -121 89 -170 31 -48 76 -119 99 -158 22 -39 72 -113
111 -165 44 -58 74 -110 81 -139 34 -134 64 -176 165 -235 74 -44 86 -59 113
-142 51 -154 117 -217 190 -179 45 23 57 65 57 196 0 135 -12 175 -85 299 -66
112 -76 164 -61 306 16 150 12 164 -76 255 -87 92 -108 135 -123 259 -11 99
-36 172 -100 301 -56 112 -70 169 -70 286 0 129 -4 138 -96 235 -87 92 -107
130 -129 257 -33 192 -95 321 -202 423 -121 115 -170 124 -279 55z"/><path d="M15485 18174 c-108 -28 -152 -66 -195 -172 -18 -42 -49 -108 -70
-147 -60 -110 -80 -182 -95 -349 -8 -83 -24 -185 -36 -226 -11 -41 -27 -111
-35 -155 -17 -100 -55 -214 -105 -327 -52 -113 -74 -228 -63 -328 17 -167 13
-207 -33 -300 -86 -178 -91 -217 -65 -468 20 -188 126 -174 239 32 21 39 62
99 92 135 159 195 313 524 376 804 19 87 35 116 100 187 64 70 75 89 109 200
17 57 47 119 90 188 36 57 73 127 82 155 23 71 56 134 94 182 142 177 102 375
-101 506 -93 59 -301 104 -384 83z"/><path d="M13577 17704 c-100 -31 -175 -148 -226 -350 -52 -209 -48 -292 24
-594 49 -203 63 -308 79 -595 19 -326 40 -395 117 -395 39 0 149 101 178 164
115 248 116 249 131 411 13 132 42 222 115 362 62 120 71 158 84 354 11 173
16 186 112 279 74 71 83 94 55 148 -19 37 -177 179 -218 196 -84 36 -361 48
-451 20z"/><path d="M6157 15760 c-60 -15 -93 -36 -151 -97 -30 -31 -89 -77 -132 -103
-92 -54 -104 -71 -139 -207 -31 -122 -24 -157 41 -189 100 -49 286 -169 349
-224 69 -60 124 -91 258 -145 69 -28 120 -70 332 -273 95 -91 342 -250 456
-293 87 -34 111 -49 179 -118 36 -37 95 -83 132 -104 37 -21 100 -64 140 -95
40 -32 96 -74 124 -95 28 -20 68 -57 88 -81 79 -97 170 -120 369 -92 120 17
156 40 157 101 0 55 -31 86 -147 145 -102 52 -110 59 -138 110 -16 30 -58 83
-92 117 -43 42 -74 86 -97 135 -30 63 -44 80 -102 123 -60 44 -71 57 -93 115
-25 63 -28 66 -91 96 -51 24 -75 44 -110 90 -26 32 -68 73 -96 91 -85 55 -104
73 -154 147 -57 84 -158 184 -252 250 -37 25 -87 72 -112 104 -24 31 -63 75
-86 97 -23 22 -67 73 -97 112 -29 40 -77 90 -106 111 -29 22 -75 62 -102 89
-73 72 -105 86 -205 89 -47 2 -102 -1 -123 -6z"/><path d="M4144 14439 c-83 -24 -177 -116 -209 -206 -10 -26 -38 -98 -61 -160
-99 -254 -17 -401 253 -452 117 -23 143 -33 243 -95 92 -57 149 -79 291 -111
127 -28 175 -48 245 -98 72 -52 146 -83 244 -102 92 -19 134 -37 223 -97 72
-49 128 -74 221 -100 67 -18 205 -81 323 -147 37 -21 71 -31 120 -35 186 -16
236 -34 344 -122 85 -70 123 -84 239 -95 76 -6 113 -15 176 -43 239 -105 424
-106 424 -3 0 44 -66 163 -110 198 -23 19 -57 55 -76 81 -42 56 -113 94 -194
104 -135 15 -178 42 -206 128 -30 94 -79 122 -188 111 -92 -10 -126 4 -188 78
-59 71 -91 97 -168 137 -30 15 -83 49 -116 74 -34 25 -117 72 -185 104 -68 33
-167 84 -219 114 -52 30 -122 69 -156 86 -33 17 -92 56 -130 88 -38 31 -103
73 -144 92 -41 19 -112 61 -157 94 -75 53 -111 73 -265 140 -28 13 -73 49
-117 94 -78 80 -66 75 -286 128 -119 28 -124 29 -171 15z"/><path d="M5210 11723 c-41 -21 -65 -43 -91 -83 -20 -30 -67 -101 -105 -158
-109 -163 -114 -173 -114 -222 0 -93 22 -135 136 -252 76 -79 99 -86 195 -64
59 14 72 14 120 1 136 -38 158 -39 266 -16 92 20 112 21 195 12 564 -65 810
-63 1022 9 154 52 168 94 57 169 -31 22 -69 53 -86 71 -62 65 -297 166 -454
195 -119 21 -181 44 -301 111 -95 54 -126 64 -355 114 -73 17 -127 37 -204 78
-137 71 -198 79 -281 35z"/><path d="M4220 9819 c-243 -62 -285 -107 -285 -303 1 -246 59 -419 159 -474
54 -29 241 -24 341 10 44 15 111 34 149 43 38 8 113 33 167 55 128 52 173 58
509 75 256 12 294 16 370 39 47 15 128 31 180 36 82 9 110 17 200 60 122 57
188 74 372 95 230 26 318 65 318 140 0 81 -64 123 -209 136 -323 30 -562 43
-916 50 -220 4 -447 12 -505 18 -58 6 -166 13 -240 16 -74 4 -178 13 -231 21
-150 22 -246 18 -379 -17z"/><path d="M6007 8383 c-4 -4 -74 -7 -156 -7 -134 -1 -152 -3 -178 -22 -134 -97
-93 -513 65 -656 130 -116 333 -100 544 45 51 35 85 49 145 62 102 22 155 50
283 145 163 120 214 151 286 171 137 38 140 84 10 143 -32 14 -80 42 -107 62
-73 53 -93 56 -270 43 -134 -11 -179 -10 -325 4 -177 18 -286 22 -297 10z"/></g><g fill="url(#sunLeafGrad)" stroke="none"><path d="M13679 15126 c-5 -5 -365 -25 -719 -39 -79 -3 -109 -9 -175 -37 -74
-30 -91 -33 -242 -40 -89 -5 -167 -11 -173 -15 -5 -3 -99 -10 -208 -15 -220
-11 -256 -18 -404 -84 -183 -81 -240 -97 -378 -105 -138 -8 -157 -14 -270 -85
-47 -29 -113 -58 -175 -78 -124 -38 -146 -49 -269 -138 -55 -39 -134 -89 -177
-111 -53 -28 -96 -60 -138 -104 -67 -72 -92 -87 -171 -105 -107 -25 -297 -147
-435 -280 -50 -48 -110 -97 -134 -109 -24 -13 -96 -72 -160 -133 -64 -61 -154
-143 -201 -182 -47 -38 -121 -104 -165 -146 -44 -41 -99 -88 -122 -105 -23
-16 -59 -57 -80 -90 -21 -33 -58 -82 -84 -110 -25 -27 -65 -77 -89 -110 -23
-33 -66 -85 -95 -115 -29 -30 -77 -86 -108 -125 -30 -38 -78 -92 -107 -120
-40 -38 -65 -76 -105 -160 -29 -60 -71 -135 -94 -165 -30 -39 -50 -82 -72
-155 -26 -84 -44 -120 -116 -227 -72 -107 -92 -146 -132 -262 -33 -93 -64
-160 -100 -214 -42 -64 -56 -99 -78 -183 -15 -60 -44 -140 -69 -189 -54 -107
-76 -195 -119 -475 -19 -123 -43 -245 -54 -272 -10 -26 -35 -87 -55 -135 -51
-124 -76 -274 -86 -513 -5 -110 -12 -256 -16 -323 -4 -71 -2 -211 4 -325 6
-111 16 -335 21 -497 7 -203 15 -317 26 -365 9 -38 25 -119 35 -178 14 -86 28
-128 64 -200 52 -105 61 -138 76 -297 25 -256 100 -520 194 -680 41 -69 86
-149 101 -179 15 -30 42 -77 60 -105 20 -30 45 -90 60 -146 16 -57 44 -125 70
-170 24 -41 62 -115 85 -164 22 -49 58 -109 79 -135 21 -25 69 -93 107 -151
37 -58 103 -151 145 -206 48 -63 83 -121 94 -155 10 -30 32 -83 51 -119 18
-36 37 -82 43 -104 15 -55 36 -74 112 -96 130 -39 568 -535 585 -663 8 -60 40
-99 93 -115 22 -7 58 -28 81 -47 42 -35 53 -39 122 -49 50 -6 223 -106 325
-186 46 -36 123 -90 171 -119 115 -72 227 -144 399 -259 99 -65 173 -106 243
-133 54 -21 153 -65 218 -98 67 -33 156 -69 202 -81 46 -12 108 -34 139 -49
90 -46 408 -149 510 -167 52 -8 130 -29 173 -45 44 -16 139 -40 212 -54 72
-13 178 -35 236 -49 124 -30 323 -49 545 -52 977 -16 988 -16 1127 0 75 9 190
16 255 16 147 1 238 12 350 45 49 14 144 32 213 40 135 16 150 20 254 60 53
20 98 28 192 35 126 9 139 13 211 62 43 29 169 78 328 127 50 16 116 45 149
64 32 20 75 42 95 48 20 6 72 31 116 54 44 24 107 51 140 60 64 18 194 87 287
152 31 22 97 57 148 78 50 21 110 55 133 75 51 45 71 55 120 64 40 7 61 31 73
81 11 49 40 81 112 125 37 23 94 68 127 100 33 33 99 85 147 117 129 87 447
426 477 510 34 92 42 105 110 168 178 166 196 187 224 260 15 39 43 90 62 114
20 25 37 54 40 65 22 109 30 130 86 208 91 129 96 140 101 253 4 79 11 114 32
165 15 36 43 105 62 154 20 49 50 114 67 145 32 56 32 56 38 301 4 135 12 291
19 347 9 77 9 140 1 259 -6 86 -11 205 -11 263 0 138 -14 220 -49 290 -16 31
-40 95 -55 142 -61 201 -293 573 -475 762 -64 67 -266 230 -366 297 -27 18
-72 53 -98 78 -32 29 -94 66 -183 108 -73 35 -164 84 -202 108 -121 79 -204
109 -342 127 -104 13 -157 33 -250 96 -138 93 -108 87 -440 88 -233 1 -313 5
-380 18 -47 9 -109 17 -138 17 -95 0 -132 26 -146 103 -21 116 -122 153 -486
177 -91 6 -219 15 -285 20 -66 5 -149 9 -185 8 -58 -1 -73 3 -143 40 -95 51
-150 55 -212 17 -109 -66 -112 -67 -259 -76 -211 -14 -352 -35 -457 -67 -127
-40 -128 -41 -283 -52 -120 -8 -148 -14 -224 -44 -48 -19 -131 -51 -184 -70
-53 -19 -106 -39 -116 -45 -11 -6 -60 -17 -108 -26 -95 -16 -200 -63 -339
-153 -38 -25 -121 -72 -182 -105 -62 -33 -139 -82 -170 -108 -32 -26 -103 -78
-158 -114 -72 -49 -140 -108 -245 -214 -80 -80 -177 -174 -216 -208 -77 -67
-118 -142 -169 -312 -12 -42 -54 -141 -94 -221 -59 -120 -75 -165 -95 -260
-13 -63 -34 -137 -45 -164 -76 -176 16 -278 154 -171 32 25 97 64 144 87 47
22 136 64 196 93 185 89 247 113 343 134 50 11 100 25 111 30 35 19 212 61
304 72 51 6 142 23 202 39 173 44 546 52 760 17 83 -14 206 -30 275 -36 69 -6
186 -18 260 -25 478 -51 759 -41 995 35 52 16 136 39 186 50 109 23 138 37
204 97 29 26 91 64 150 92 80 38 110 58 151 103 28 30 79 79 113 107 58 49
103 109 182 243 19 32 67 95 107 140 46 51 88 112 113 162 50 101 143 236 172
251 34 17 110 26 166 18 48 -6 81 -23 188 -95 21 -14 99 -45 173 -68 253 -80
315 -103 400 -149 47 -25 114 -60 150 -77 74 -37 264 -155 348 -217 84 -62
134 -118 209 -231 62 -94 82 -137 98 -210 4 -22 18 -33 70 -58 77 -36 97 -65
126 -179 11 -46 38 -131 60 -189 40 -107 45 -130 75 -386 16 -136 16 -143 -5
-265 -57 -337 -59 -347 -91 -406 -28 -52 -31 -66 -26 -113 8 -88 -18 -209 -69
-313 -24 -51 -75 -160 -113 -243 -37 -82 -95 -190 -128 -240 -33 -49 -66 -105
-73 -122 -7 -18 -44 -67 -81 -110 -37 -42 -91 -115 -120 -162 -77 -129 -172
-235 -285 -320 -55 -42 -149 -125 -210 -185 -86 -85 -124 -115 -172 -137 -44
-20 -79 -46 -120 -90 -43 -45 -80 -72 -145 -105 -47 -24 -115 -62 -150 -84
-117 -76 -216 -119 -298 -129 -81 -9 -183 -53 -270 -116 -67 -48 -96 -61 -192
-84 -48 -11 -118 -34 -155 -51 -39 -18 -100 -35 -143 -41 -41 -6 -113 -24
-160 -40 -146 -51 -252 -70 -435 -79 -182 -9 -233 -17 -365 -55 -147 -42 -205
-47 -495 -40 -148 3 -304 11 -345 16 -41 6 -136 14 -210 19 -81 5 -177 18
-240 33 -58 14 -139 28 -180 32 -80 6 -269 30 -360 45 -101 17 -307 78 -387
113 -43 20 -106 41 -140 47 -41 8 -90 29 -143 60 -51 30 -103 52 -140 59 -75
15 -239 91 -307 142 -75 56 -167 104 -250 128 -57 17 -95 38 -185 105 -62 45
-136 95 -164 110 -28 15 -80 53 -115 85 -35 31 -86 72 -114 91 -27 18 -72 53
-100 77 -27 24 -70 58 -95 76 -24 18 -70 65 -103 104 -32 40 -129 143 -215
230 -162 163 -232 259 -268 366 -11 32 -27 56 -52 75 -131 98 -250 238 -292
341 -16 38 -42 88 -59 112 -17 23 -43 79 -56 123 -14 45 -46 117 -71 161 -89
153 -103 180 -119 245 -9 36 -32 92 -50 125 -18 33 -39 80 -45 105 -6 25 -28
79 -48 120 -37 75 -37 75 -42 250 -5 175 -5 175 -44 258 -25 55 -43 114 -52
173 -8 50 -29 125 -45 167 -63 156 -74 291 -38 447 17 74 22 141 28 375 8 321
6 315 94 442 50 73 49 71 67 288 19 227 32 267 134 395 29 36 30 41 37 183 9
191 21 227 107 332 25 30 65 98 89 150 71 153 82 174 135 246 27 38 66 96 85
129 19 33 52 83 72 110 21 28 63 88 93 135 67 104 77 112 163 147 78 32 148
118 221 270 45 94 78 131 162 181 46 27 105 79 178 154 60 63 141 138 179 168
39 30 102 84 140 120 84 79 320 225 507 314 73 35 169 85 212 110 44 25 123
60 175 77 53 18 150 59 216 92 120 60 120 60 255 68 170 9 296 49 433 135 128
82 175 94 407 105 107 5 292 14 410 20 213 12 288 11 670 -12 107 -6 287 -12
400 -14 229 -2 236 -4 388 -80 117 -59 308 -121 411 -135 91 -12 133 -29 196
-80 73 -58 122 -81 220 -100 119 -24 144 -37 226 -116 71 -68 93 -80 179 -96
68 -12 120 -38 189 -95 72 -58 92 -68 186 -87 109 -23 141 -45 186 -130 21
-39 323 -346 409 -415 25 -20 75 -62 113 -95 37 -33 102 -82 144 -110 59 -39
89 -69 128 -123 28 -40 80 -103 116 -140 36 -37 85 -95 109 -128 24 -33 63
-82 88 -110 47 -53 93 -138 136 -252 21 -56 43 -90 97 -149 38 -42 91 -113
118 -158 28 -45 59 -90 71 -101 40 -36 62 -86 95 -215 38 -145 42 -155 96
-226 21 -27 50 -81 64 -118 14 -37 36 -89 50 -116 14 -27 34 -83 46 -125 11
-43 34 -108 50 -146 35 -81 54 -161 69 -287 6 -51 19 -116 30 -145 11 -28 29
-92 40 -141 40 -173 123 -271 197 -232 95 49 153 151 153 270 0 47 6 134 14
193 35 258 36 405 6 528 -19 77 -21 105 -15 210 7 125 -33 356 -97 569 -18 59
-20 81 -13 160 16 182 13 207 -22 262 -107 163 -166 307 -197 480 -25 137 -38
170 -121 321 -18 34 -36 84 -40 110 -17 141 -21 150 -109 237 -73 73 -83 88
-103 151 -18 55 -39 90 -99 165 -42 52 -96 134 -119 181 -28 55 -68 112 -109
157 -36 39 -81 102 -100 140 -33 66 -115 155 -184 200 -14 9 -70 71 -125 137
-96 116 -259 278 -362 360 -27 22 -77 64 -110 95 -33 30 -80 71 -105 90 -25
18 -72 63 -104 98 -33 35 -91 86 -130 113 -39 27 -101 73 -139 102 -38 31
-102 68 -150 87 -69 29 -96 47 -167 116 -99 95 -120 107 -222 128 -94 20 -118
28 -188 71 -30 18 -84 43 -120 54 -36 11 -102 31 -148 45 -45 14 -107 42 -137
61 -138 88 -213 115 -419 150 -118 20 -176 36 -270 74 -198 80 -318 104 -601
120 -123 7 -153 13 -245 45 -162 56 -420 104 -441 82z"/></g></g></svg>